<?xml version="1.0" encoding="utf-8"?>
<!-- Generator: Adobe Illustrator 26.5.0, SVG Export Plug-In . SVG Version: 6.00 Build 0)  -->
<svg version="1.1" xmlns="http://www.w3.org/2000/svg" xmlns:xlink="http://www.w3.org/1999/xlink" x="0px" y="0px"
	 viewBox="972 400 838 282" style="enable-background:new 0 0 1920 1080;" xml:space="preserve">
<style type="text/css">
	.st0{fill:#46AD37;}
	.st1{fill:#0BACAE;}
	.st2{fill:#086EBD;}
	.st3{fill:#F7B409;}
	.st4{fill:#FFFFFF;}
	.st5{fill:#11B1B5;}
	.st6{fill:none;stroke:#052E59;stroke-miterlimit:10;}
	.st7{fill:#46B136;}
</style>
<g id="REF">
</g>
<g id="Logo">
	<g>
		<g>
			<g>
				<circle class="st0" cx="613.5" cy="373.75" r="23"/>
				<path class="st0" d="M486.98,210.27l1.96-14.34c0.31-2.29,2.52-3.83,4.78-3.31c20.89,4.79,113.12,32.1,129.19,143.62
					c0.34,2.38-1.5,4.52-3.91,4.52h-13.03c-1.95,0-3.61-1.42-3.9-3.34c-2.64-17.49-19.77-98.52-112.2-122.8
					C487.94,214.1,486.71,212.23,486.98,210.27z"/>
			</g>
		</g>
		<g>
			<g>
				<circle class="st1" cx="454" cy="605.75" r="23"/>
				<path class="st1" d="M601.49,404.55l11.54,2.31c2.5,0.5,4.06,2.99,3.43,5.46c-3.22,12.56-14.93,49.17-48.96,86.44
					c-38.67,42.35-60.38,78.76-75.29,95.2c-1.87,2.06-5.15,1.88-6.82-0.34l-6.96-9.28c-1.16-1.54-1.19-3.65-0.08-5.22
					c8.3-11.74,42.88-60.19,73.14-95.36c29.96-34.82,41.56-65.71,44.89-76.2C597.08,405.4,599.27,404.11,601.49,404.55z"/>
			</g>
		</g>
		<g>
			<g>
				<circle class="st2" cx="454" cy="200.25" r="23"/>
				<path class="st2" d="M420.51,210.27l-1.96-14.34c-0.31-2.29-2.52-3.83-4.78-3.31c-20.89,4.79-113.12,32.1-129.19,143.62
					c-0.34,2.38,1.5,4.52,3.91,4.52h13.03c1.95,0,3.61-1.42,3.9-3.34c2.64-17.49,19.77-98.52,112.2-122.8
					C419.54,214.1,420.78,212.23,420.51,210.27z"/>
			</g>
		</g>
		<g>
			<g>
				<circle class="st3" cx="292.5" cy="373.75" r="23"/>
				<path class="st3" d="M305.99,404.55l-11.54,2.31c-2.5,0.5-4.06,2.99-3.43,5.46c3.22,12.56,14.93,49.17,48.96,86.44
					c38.67,42.35,60.38,78.76,75.29,95.2c1.87,2.06,5.15,1.88,6.82-0.34l6.96-9.28c1.16-1.54,1.19-3.65,0.08-5.22
					c-8.3-11.74-42.88-60.19-73.14-95.36c-29.96-34.82-41.56-65.71-44.89-76.2C310.41,405.4,308.21,404.11,305.99,404.55z"/>
			</g>
		</g>
		<g>
			<g>
				<circle class="st4" cx="454" cy="406.75" r="32"/>
				<path class="st4" d="M453.25,573.75h-5.16c-5.07,0-9.11-4.24-8.85-9.3c0.44-8.7,0.13-23.28-3.99-42.7c-7-33-35-52-55-70
					c-7.7-6.93-13.18-12.67-17-17.12c-4.77-5.55-3.89-13.97,1.97-18.36v0c5.42-4.07,13.09-3.11,17.37,2.15
					c36.52,44.96,71.66,42.33,71.66,42.33h-0.5c0,0,35.14,2.64,71.66-42.33c4.27-5.26,11.94-6.22,17.37-2.15l0,0
					c5.86,4.39,6.74,12.81,1.97,18.36c-3.82,4.44-9.3,10.19-17,17.12c-20,18-48,37-55,70c-4.12,19.42-4.43,33.99-3.99,42.7
					c0.26,5.06-3.78,9.3-8.85,9.3h-5.16H453.25z"/>
			</g>
		</g>
	</g>
	<g>
		<g>
			<path class="st4" d="M217.52,674.25h-15.16v68.64h15.16c3.86,0,7.15,3.15,7.15,7.15s-3.29,7.15-7.15,7.15h-45.9
				c-3.86,0-7.15-3.15-7.15-7.15s3.29-7.15,7.15-7.15h15.02v-68.64h-15.02c-3.86,0-7.15-3.15-7.15-7.15c0-4,3.29-7.15,7.15-7.15
				h45.9c3.86,0,7.15,3.15,7.15,7.15C224.67,671.11,221.38,674.25,217.52,674.25z"/>
			<path class="st4" d="M286.87,749.37c0,3.32-1.9,5.93-5.76,7.33c-3.18,1.14-7.62,1.93-12.19,1.93c-11.3,0-24.95-5.72-24.95-25.03
				v-34.32h-6.44c-3.75,0-6.79-3.04-6.79-6.79s3.04-6.79,6.79-6.79h6.44v-13.23c0-4.15,3.36-7.51,7.51-7.51
				c4.15,0,7.51,3.36,7.51,7.51v13.23h18.41c3.75,0,6.79,3.04,6.79,6.79s-3.04,6.79-6.79,6.79h-18.41v32.03
				c0,9.29,5.36,13.01,12.08,13.01c2.22,0,4.65-0.43,5.97-0.79c1.79-0.5,2.75-0.57,3.36-0.57
				C284.19,742.97,286.87,745.61,286.87,749.37z"/>
			<path class="st4" d="M359.23,712.87v37.47c0,4.15-3.36,7.58-7.51,7.58c-4.15,0-7.51-3.43-7.51-7.58v-4.33
				c-4.93,8.4-13.51,12.62-23.45,12.62c-13.16,0-25.31-7.44-25.31-22.59c0-14.73,13.01-23.17,30.17-23.17
				c6.01,0,11.87,1.14,18.59,3.72v-2.86c0-10.3-4.86-15.87-18.02-15.87c-6.26,0-11.19,1.68-14.05,2.93c-2.57,1.14-4,1.86-6.36,1.86
				c-2.9,0-5.83-2.22-5.83-6.18c0-2.57,1.39-5.15,5.4-7.08c4.93-2.36,13.76-5.11,23.77-5.11
				C350.15,684.26,359.23,693.13,359.23,712.87z M344.21,726.74c-5.86-2.72-11.73-3.86-17.02-3.86c-11.3,0-16.73,4.29-16.73,12.16
				c0,7.72,5.15,11.44,13.16,11.44C334.63,746.47,344.21,739.61,344.21,726.74z"/>
			<path class="st4" d="M376.82,661.38c0-5.58,4.29-10.01,10.01-10.01c5.58,0,10.01,4.43,10.01,10.01c0,5.72-4.43,10.01-10.01,10.01
				C381.11,671.39,376.82,667.1,376.82,661.38z M394.26,692.56v57.77c0,4.15-3.36,7.58-7.51,7.58c-4.15,0-7.51-3.43-7.51-7.58
				v-57.77c0-4.15,3.36-7.58,7.51-7.58C390.9,684.98,394.26,688.41,394.26,692.56z"/>
			<path class="st4" d="M461.11,749.37c0,3.32-1.9,5.93-5.76,7.33c-3.18,1.14-7.62,1.93-12.19,1.93c-11.3,0-24.95-5.72-24.95-25.03
				v-34.32h-6.44c-3.75,0-6.79-3.04-6.79-6.79s3.04-6.79,6.79-6.79h6.44v-13.23c0-4.15,3.36-7.51,7.51-7.51
				c4.15,0,7.51,3.36,7.51,7.51v13.23h18.41c3.75,0,6.79,3.04,6.79,6.79s-3.04,6.79-6.79,6.79h-18.41v32.03
				c0,9.29,5.36,13.01,12.08,13.01c2.22,0,4.65-0.43,5.97-0.79c1.79-0.5,2.75-0.57,3.36-0.57
				C458.43,742.97,461.11,745.61,461.11,749.37z"/>
			<path class="st4" d="M470.48,661.38c0-5.58,4.29-10.01,10.01-10.01c5.58,0,10.01,4.43,10.01,10.01c0,5.72-4.43,10.01-10.01,10.01
				C474.77,671.39,470.48,667.1,470.48,661.38z M487.92,692.56v57.77c0,4.15-3.36,7.58-7.51,7.58c-4.15,0-7.51-3.43-7.51-7.58
				v-57.77c0-4.15,3.36-7.58,7.51-7.58C484.56,684.98,487.92,688.41,487.92,692.56z"/>
			<path class="st4" d="M572.3,710.72v39.61c0,4.15-3.36,7.58-7.51,7.58c-4.15,0-7.51-3.43-7.51-7.58v-33.18
				c0-14.16-7.87-18.59-16.45-18.59c-7.87,0-17.88,4.43-17.88,18.59v33.18c0,4.15-3.36,7.58-7.51,7.58c-4.15,0-7.51-3.43-7.51-7.58
				v-57.77c0-4.15,3.36-7.58,7.51-7.58c4.15,0,7.51,3.43,7.51,7.58v3.15c2.86-5.15,9.29-11.44,22.17-11.44
				C559.43,684.26,572.3,694.28,572.3,710.72z"/>
			<path class="st4" d="M660.96,692.56v58.92c0,21.81-14.01,35.39-38.18,35.39c-8.19,0-15.98-1.54-22.56-4.36
				c-2.5-1.07-4.29-3.54-4.29-6.43c0-3.9,3.15-7.04,7.04-7.04c0.89,0,1.75,0.14,2.5,0.43c5.61,2.15,11.33,3.11,16.87,3.11
				c14.87,0,23.6-7.15,23.6-21.09v-8.9c-5.36,6.4-13.37,10.33-23.6,10.33c-20.02,0-34.32-15.02-34.32-34.32s14.3-34.32,34.32-34.32
				c10.23,0,18.23,3.93,23.6,10.33v-2.04c0-4.15,3.36-7.58,7.51-7.58C657.59,684.98,660.96,688.41,660.96,692.56z M646.66,718.59
				c0-12.87-9.3-20.74-21.45-20.74s-21.45,7.87-21.45,20.74c0,12.87,9.29,20.74,21.45,20.74S646.66,731.46,646.66,718.59z"/>
			<path class="st4" d="M741.53,712.87v37.47c0,4.15-3.36,7.58-7.51,7.58s-7.51-3.43-7.51-7.58v-4.33
				c-4.93,8.4-13.51,12.62-23.45,12.62c-13.16,0-25.31-7.44-25.31-22.59c0-14.73,13.01-23.17,30.17-23.17
				c6.01,0,11.87,1.14,18.59,3.72v-2.86c0-10.3-4.86-15.87-18.02-15.87c-6.26,0-11.19,1.68-14.05,2.93c-2.57,1.14-4,1.86-6.36,1.86
				c-2.9,0-5.83-2.22-5.83-6.18c0-2.57,1.39-5.15,5.4-7.08c4.93-2.36,13.76-5.11,23.77-5.11
				C732.45,684.26,741.53,693.13,741.53,712.87z M726.52,726.74c-5.86-2.72-11.73-3.86-17.02-3.86c-11.3,0-16.73,4.29-16.73,12.16
				c0,7.72,5.15,11.44,13.16,11.44C716.94,746.47,726.52,739.61,726.52,726.74z"/>
		</g>
		<g>
			<path class="st5" d="M164.79,811.93c0-11.19,8.87-19.55,20.24-19.55c5.8,0,10.9,2.26,14.44,5.97c1.04,1.04,0.99,2.26-0.12,3.13
				l-2.09,1.8c-1.1,0.87-2.09,0.75-3.19-0.17c-2.38-2.26-5.45-3.65-8.99-3.65c-6.9,0-12.3,5.22-12.3,12.47s5.39,12.47,12.3,12.47
				c3.54,0,6.67-1.39,8.99-3.65c1.1-0.99,2.09-1.1,3.19-0.17l2.09,1.74c1.1,0.93,1.16,2.15,0.12,3.13
				c-3.54,3.77-8.64,6.03-14.5,6.03C173.67,831.48,164.79,823.12,164.79,811.93z"/>
			<path class="st5" d="M232.42,811.93c0-11.19,8.87-19.55,20.47-19.55c11.66,0,20.47,8.35,20.47,19.55
				c0,11.14-8.82,19.55-20.47,19.55C241.3,831.48,232.42,823.12,232.42,811.93z M265.42,811.93c0-7.31-5.51-12.47-12.53-12.47
				s-12.47,5.16-12.47,12.47c0,7.25,5.45,12.47,12.47,12.47S265.42,819.18,265.42,811.93z"/>
			<path class="st5" d="M342.04,795.34v33.29c0,1.68-1.22,2.44-2.61,2.44h-0.46c-1.33,0-2.32-0.75-3.42-2.09l-18.68-22.27v21.75
				c0,1.45-0.75,2.32-2.2,2.32h-3.31c-1.45,0-2.26-0.87-2.26-2.32v-33.23c0-1.74,1.22-2.44,2.61-2.44h0.46
				c1.33,0,2.32,0.75,3.42,2.09l18.68,22.21v-21.75c0-1.45,0.75-2.26,2.2-2.26h3.31C341.23,793.08,342.04,793.89,342.04,795.34z"/>
			<path class="st5" d="M380.09,828.46v-33.12c0-1.45,0.87-2.26,2.32-2.26h22.27c1.45,0,2.32,0.75,2.32,2.2v2.03
				c0,1.45-0.87,2.26-2.32,2.26h-16.76v9.16h12.59c1.45,0,2.32,0.75,2.32,2.2v1.74c0,1.45-0.87,2.26-2.32,2.26h-12.59v9.34h16.88
				c1.45,0,2.26,0.75,2.26,2.2v2.03c0,1.45-0.81,2.26-2.26,2.26h-22.39C380.96,830.78,380.09,829.91,380.09,828.46z"/>
			<path class="st5" d="M439.19,811.93c0-11.19,8.87-19.55,20.24-19.55c5.8,0,10.9,2.26,14.44,5.97c1.04,1.04,0.99,2.26-0.12,3.13
				l-2.09,1.8c-1.1,0.87-2.09,0.75-3.19-0.17c-2.38-2.26-5.45-3.65-8.99-3.65c-6.9,0-12.3,5.22-12.3,12.47s5.39,12.47,12.3,12.47
				c3.54,0,6.67-1.39,8.99-3.65c1.1-0.99,2.09-1.1,3.19-0.17l2.09,1.74c1.1,0.93,1.16,2.15,0.12,3.13
				c-3.54,3.77-8.64,6.03-14.5,6.03C448.07,831.48,439.19,823.12,439.19,811.93z"/>
			<path class="st5" d="M517.78,828.46v-28.88h-9.74c-1.45,0-2.26-0.81-2.26-2.26v-2.03c0-1.45,0.81-2.2,2.26-2.2h27.26
				c1.45,0,2.32,0.75,2.32,2.2v2.03c0,1.45-0.87,2.26-2.32,2.26h-9.69v28.88c0,1.45-0.81,2.32-2.26,2.32h-3.36
				C518.53,830.78,517.78,829.91,517.78,828.46z"/>
			<path class="st5" d="M600.02,830.78h-4.52c-1.45,0-1.74-0.81-2.38-2.26l-2.03-4.87h-17.17l-2.09,4.87
				c-0.58,1.45-0.87,2.26-2.38,2.26h-4.23c-1.45,0-2.2-0.81-1.51-2.26l15.95-33.81c0.58-1.22,1.39-1.97,2.73-1.97h0.52
				c1.33,0,2.2,0.75,2.78,1.97l15.89,33.81C602.23,829.97,601.53,830.78,600.02,830.78z M588.71,818.02l-6.09-14.62l-6.26,14.62
				H588.71z"/>
			<path class="st5" d="M636.22,828.46v-33.12c0-1.45,0.87-2.26,2.32-2.26h13.69c12.06,0,19.78,7.54,19.78,18.79
				c0,11.37-7.71,18.91-19.78,18.91h-13.69C637.09,830.78,636.22,829.91,636.22,828.46z M651.99,824.28
				c7.19,0,12.01-4.76,12.01-12.35c0-7.66-4.81-12.35-12.01-12.35h-7.95v24.71H651.99z"/>
			<path class="st5" d="M739.4,830.78h-4.52c-1.45,0-1.74-0.81-2.38-2.26l-2.03-4.87H713.3l-2.09,4.87
				c-0.58,1.45-0.87,2.26-2.38,2.26h-4.23c-1.45,0-2.2-0.81-1.51-2.26l15.95-33.81c0.58-1.22,1.39-1.97,2.73-1.97h0.52
				c1.33,0,2.2,0.75,2.78,1.97l15.89,33.81C741.6,829.97,740.91,830.78,739.4,830.78z M728.09,818.02L722,803.4l-6.26,14.62H728.09z
				"/>
		</g>
	</g>
	<g>
		<line class="st6" x1="902" y1="601.69" x2="902" y2="825.94"/>
		<line class="st6" x1="902" y1="231.44" x2="902" y2="454.44"/>
		<circle class="st4" cx="902" cy="462.44" r="8"/>
		<circle class="st3" cx="902" cy="495.44" r="8"/>
		<circle class="st7" cx="902" cy="528.44" r="8"/>
		<circle class="st1" cx="902" cy="561.44" r="8"/>
		<circle class="st5" cx="902" cy="594.44" r="8"/>
	</g>
	<g>
		<g>
			<g>
				<circle class="st0" cx="1181.46" cy="522.78" r="13.54"/>
				<path class="st0" d="M1107,426.56l1.15-8.44c0.18-1.35,1.48-2.25,2.81-1.95c12.29,2.82,66.58,18.89,76.04,84.53
					c0.2,1.4-0.88,2.66-2.3,2.66h-7.67c-1.15,0-2.12-0.83-2.29-1.97c-1.56-10.29-11.63-57.98-66.04-72.28
					C1107.57,428.82,1106.84,427.72,1107,426.56z"/>
			</g>
		</g>
		<g>
			<g>
				<circle class="st1" cx="1087.59" cy="659.33" r="13.54"/>
				<path class="st1" d="M1174.39,540.91l6.79,1.36c1.47,0.29,2.39,1.76,2.02,3.21c-1.9,7.39-8.79,28.94-28.81,50.87
					c-22.76,24.92-35.54,46.36-44.31,56.03c-1.1,1.21-3.03,1.11-4.01-0.2l-4.1-5.46c-0.68-0.91-0.7-2.15-0.04-3.07
					c4.88-6.91,25.24-35.42,43.05-56.12c17.63-20.49,24.46-38.67,26.42-44.85C1171.8,541.41,1173.09,540.65,1174.39,540.91z"/>
			</g>
		</g>
		<g>
			<g>
				<circle class="st2" cx="1087.59" cy="420.67" r="13.54"/>
				<path class="st2" d="M1067.88,426.56l-1.15-8.44c-0.18-1.35-1.48-2.25-2.81-1.95c-12.29,2.82-66.58,18.89-76.04,84.53
					c-0.2,1.4,0.88,2.66,2.3,2.66h7.67c1.15,0,2.12-0.83,2.29-1.97c1.56-10.29,11.63-57.98,66.04-72.28
					C1067.31,428.82,1068.03,427.72,1067.88,426.56z"/>
			</g>
		</g>
		<g>
			<g>
				<circle class="st3" cx="992.54" cy="522.78" r="13.54"/>
				<path class="st3" d="M1000.48,540.91l-6.79,1.36c-1.47,0.29-2.39,1.76-2.02,3.21c1.9,7.39,8.79,28.94,28.81,50.87
					c22.76,24.92,35.54,46.36,44.31,56.03c1.1,1.21,3.03,1.11,4.01-0.2l4.1-5.46c0.68-0.91,0.7-2.15,0.04-3.07
					c-4.88-6.91-25.24-35.42-43.05-56.12c-17.63-20.49-24.46-38.67-26.42-44.85C1003.08,541.41,1001.79,540.65,1000.48,540.91z"/>
			</g>
		</g>
		<g>
			<g>
				<circle class="st4" cx="1087.59" cy="542.21" r="18.83"/>
				<path class="st4" d="M1087.15,640.5h-3.04c-2.98,0-5.36-2.49-5.21-5.47c0.26-5.12,0.08-13.7-2.35-25.13
					c-4.12-19.42-20.6-30.6-32.37-41.2c-4.53-4.08-7.76-7.46-10.01-10.07c-2.81-3.27-2.29-8.22,1.16-10.8l0,0
					c3.19-2.39,7.71-1.83,10.22,1.26c21.5,26.46,42.18,24.91,42.18,24.91h-0.29c0,0,20.68,1.55,42.18-24.91
					c2.52-3.1,7.03-3.66,10.22-1.26l0,0c3.45,2.58,3.97,7.54,1.16,10.8c-2.25,2.62-5.47,6-10.01,10.07
					c-11.77,10.59-28.25,21.78-32.37,41.2c-2.42,11.43-2.61,20.01-2.35,25.13c0.15,2.98-2.23,5.47-5.21,5.47h-3.04H1087.15z"/>
			</g>
		</g>
	</g>
	<g>
		<g>
			<path class="st4" d="M1277.52,472.83h-15.16v68.64h15.16c3.86,0,7.15,3.15,7.15,7.15s-3.29,7.15-7.15,7.15h-45.9
				c-3.86,0-7.15-3.15-7.15-7.15s3.29-7.15,7.15-7.15h15.02v-68.64h-15.02c-3.86,0-7.15-3.15-7.15-7.15c0-4,3.29-7.15,7.15-7.15
				h45.9c3.86,0,7.15,3.15,7.15,7.15C1284.67,469.68,1281.38,472.83,1277.52,472.83z"/>
			<path class="st4" d="M1346.88,547.94c0,3.32-1.9,5.93-5.76,7.33c-3.18,1.14-7.62,1.93-12.19,1.93c-11.3,0-24.95-5.72-24.95-25.03
				v-34.32h-6.44c-3.75,0-6.79-3.04-6.79-6.79s3.04-6.79,6.79-6.79h6.44v-13.23c0-4.15,3.36-7.51,7.51-7.51
				c4.15,0,7.51,3.36,7.51,7.51v13.23h18.41c3.75,0,6.79,3.04,6.79,6.79s-3.04,6.79-6.79,6.79h-18.41v32.03
				c0,9.29,5.36,13.01,12.08,13.01c2.22,0,4.65-0.43,5.97-0.79c1.79-0.5,2.75-0.57,3.36-0.57
				C1344.19,541.54,1346.88,544.19,1346.88,547.94z"/>
			<path class="st4" d="M1419.23,511.44v37.47c0,4.15-3.36,7.58-7.51,7.58c-4.15,0-7.51-3.43-7.51-7.58v-4.33
				c-4.93,8.4-13.51,12.62-23.45,12.62c-13.16,0-25.31-7.44-25.31-22.59c0-14.73,13.01-23.17,30.17-23.17
				c6.01,0,11.87,1.14,18.59,3.72v-2.86c0-10.3-4.86-15.87-18.02-15.87c-6.26,0-11.19,1.68-14.05,2.93c-2.57,1.14-4,1.86-6.36,1.86
				c-2.9,0-5.83-2.22-5.83-6.18c0-2.57,1.39-5.15,5.4-7.08c4.93-2.36,13.76-5.11,23.77-5.11
				C1410.15,482.84,1419.23,491.71,1419.23,511.44z M1404.22,525.31c-5.86-2.72-11.73-3.86-17.02-3.86
				c-11.3,0-16.73,4.29-16.73,12.16c0,7.72,5.15,11.44,13.16,11.44C1394.64,545.05,1404.22,538.18,1404.22,525.31z"/>
			<path class="st4" d="M1436.82,459.96c0-5.58,4.29-10.01,10.01-10.01c5.58,0,10.01,4.43,10.01,10.01
				c0,5.72-4.43,10.01-10.01,10.01C1441.11,469.97,1436.82,465.68,1436.82,459.96z M1454.26,491.13v57.77
				c0,4.15-3.36,7.58-7.51,7.58c-4.15,0-7.51-3.43-7.51-7.58v-57.77c0-4.15,3.36-7.58,7.51-7.58
				C1450.9,483.56,1454.26,486.99,1454.26,491.13z"/>
			<path class="st4" d="M1521.12,547.94c0,3.32-1.9,5.93-5.76,7.33c-3.18,1.14-7.62,1.93-12.19,1.93c-11.3,0-24.95-5.72-24.95-25.03
				v-34.32h-6.44c-3.75,0-6.79-3.04-6.79-6.79s3.04-6.79,6.79-6.79h6.44v-13.23c0-4.15,3.36-7.51,7.51-7.51
				c4.15,0,7.51,3.36,7.51,7.51v13.23h18.41c3.75,0,6.79,3.04,6.79,6.79s-3.04,6.79-6.79,6.79h-18.41v32.03
				c0,9.29,5.36,13.01,12.08,13.01c2.22,0,4.65-0.43,5.97-0.79c1.79-0.5,2.75-0.57,3.36-0.57
				C1518.44,541.54,1521.12,544.19,1521.12,547.94z"/>
			<path class="st4" d="M1530.48,459.96c0-5.58,4.29-10.01,10.01-10.01c5.58,0,10.01,4.43,10.01,10.01
				c0,5.72-4.43,10.01-10.01,10.01C1534.77,469.97,1530.48,465.68,1530.48,459.96z M1547.93,491.13v57.77
				c0,4.15-3.36,7.58-7.51,7.58c-4.15,0-7.51-3.43-7.51-7.58v-57.77c0-4.15,3.36-7.58,7.51-7.58
				C1544.57,483.56,1547.93,486.99,1547.93,491.13z"/>
			<path class="st4" d="M1632.3,509.3v39.61c0,4.15-3.36,7.58-7.51,7.58c-4.15,0-7.51-3.43-7.51-7.58v-33.18
				c0-14.16-7.87-18.59-16.45-18.59c-7.87,0-17.88,4.43-17.88,18.59v33.18c0,4.15-3.36,7.58-7.51,7.58c-4.15,0-7.51-3.43-7.51-7.58
				v-57.77c0-4.15,3.36-7.58,7.51-7.58c4.15,0,7.51,3.43,7.51,7.58v3.15c2.86-5.15,9.29-11.44,22.17-11.44
				C1619.43,482.84,1632.3,492.85,1632.3,509.3z"/>
			<path class="st4" d="M1720.96,491.13v58.92c0,21.81-14.01,35.39-38.18,35.39c-8.19,0-15.98-1.54-22.56-4.36
				c-2.5-1.07-4.29-3.54-4.29-6.43c0-3.9,3.15-7.04,7.04-7.04c0.89,0,1.75,0.14,2.5,0.43c5.61,2.15,11.33,3.11,16.87,3.11
				c14.87,0,23.6-7.15,23.6-21.09v-8.9c-5.36,6.4-13.37,10.33-23.6,10.33c-20.02,0-34.32-15.02-34.32-34.32s14.3-34.32,34.32-34.32
				c10.23,0,18.23,3.93,23.6,10.33v-2.04c0-4.15,3.36-7.58,7.51-7.58C1717.6,483.56,1720.96,486.99,1720.96,491.13z M1706.66,517.16
				c0-12.87-9.3-20.74-21.45-20.74s-21.45,7.87-21.45,20.74c0,12.87,9.29,20.74,21.45,20.74S1706.66,530.03,1706.66,517.16z"/>
			<path class="st4" d="M1801.54,511.44v37.47c0,4.15-3.36,7.58-7.51,7.58s-7.51-3.43-7.51-7.58v-4.33
				c-4.93,8.4-13.51,12.62-23.45,12.62c-13.16,0-25.31-7.44-25.31-22.59c0-14.73,13.01-23.17,30.17-23.17
				c6.01,0,11.87,1.14,18.59,3.72v-2.86c0-10.3-4.86-15.87-18.02-15.87c-6.26,0-11.19,1.68-14.05,2.93c-2.57,1.14-4,1.86-6.36,1.86
				c-2.9,0-5.83-2.22-5.83-6.18c0-2.57,1.39-5.15,5.4-7.08c4.93-2.36,13.76-5.11,23.77-5.11
				C1792.46,482.84,1801.54,491.71,1801.54,511.44z M1786.52,525.31c-5.86-2.72-11.73-3.86-17.02-3.86
				c-11.3,0-16.73,4.29-16.73,12.16c0,7.72,5.15,11.44,13.16,11.44C1776.94,545.05,1786.52,538.18,1786.52,525.31z"/>
		</g>
		<g>
			<path class="st5" d="M1224.8,610.51c0-11.19,8.87-19.55,20.24-19.55c5.8,0,10.9,2.26,14.44,5.97c1.04,1.04,0.99,2.26-0.12,3.13
				l-2.09,1.8c-1.1,0.87-2.09,0.75-3.19-0.17c-2.38-2.26-5.45-3.65-8.99-3.65c-6.9,0-12.3,5.22-12.3,12.47s5.39,12.47,12.3,12.47
				c3.54,0,6.67-1.39,8.99-3.65c1.1-0.99,2.09-1.1,3.19-0.17l2.09,1.74c1.1,0.93,1.16,2.15,0.12,3.13
				c-3.54,3.77-8.64,6.03-14.5,6.03C1233.67,630.05,1224.8,621.7,1224.8,610.51z"/>
			<path class="st5" d="M1292.42,610.51c0-11.19,8.87-19.55,20.47-19.55c11.66,0,20.47,8.35,20.47,19.55
				c0,11.14-8.82,19.55-20.47,19.55C1301.3,630.05,1292.42,621.7,1292.42,610.51z M1325.43,610.51c0-7.31-5.51-12.47-12.53-12.47
				s-12.47,5.16-12.47,12.47c0,7.25,5.45,12.47,12.47,12.47S1325.43,617.76,1325.43,610.51z"/>
			<path class="st5" d="M1402.04,593.92v33.29c0,1.68-1.22,2.44-2.61,2.44h-0.46c-1.33,0-2.32-0.75-3.42-2.09l-18.68-22.27v21.75
				c0,1.45-0.75,2.32-2.2,2.32h-3.31c-1.45,0-2.26-0.87-2.26-2.32V593.8c0-1.74,1.22-2.44,2.61-2.44h0.46
				c1.33,0,2.32,0.75,3.42,2.09l18.68,22.21v-21.75c0-1.45,0.75-2.26,2.2-2.26h3.31C1401.23,591.66,1402.04,592.47,1402.04,593.92z"
				/>
			<path class="st5" d="M1440.09,627.03v-33.12c0-1.45,0.87-2.26,2.32-2.26h22.27c1.45,0,2.32,0.75,2.32,2.2v2.03
				c0,1.45-0.87,2.26-2.32,2.26h-16.76v9.16h12.59c1.45,0,2.32,0.75,2.32,2.2v1.74c0,1.45-0.87,2.26-2.32,2.26h-12.59v9.34h16.88
				c1.45,0,2.26,0.75,2.26,2.2v2.03c0,1.45-0.81,2.26-2.26,2.26h-22.39C1440.96,629.35,1440.09,628.48,1440.09,627.03z"/>
			<path class="st5" d="M1499.19,610.51c0-11.19,8.87-19.55,20.24-19.55c5.8,0,10.9,2.26,14.44,5.97c1.04,1.04,0.99,2.26-0.12,3.13
				l-2.09,1.8c-1.1,0.87-2.09,0.75-3.19-0.17c-2.38-2.26-5.45-3.65-8.99-3.65c-6.9,0-12.3,5.22-12.3,12.47s5.39,12.47,12.3,12.47
				c3.54,0,6.67-1.39,8.99-3.65c1.1-0.99,2.09-1.1,3.19-0.17l2.09,1.74c1.1,0.93,1.16,2.15,0.12,3.13
				c-3.54,3.77-8.64,6.03-14.5,6.03C1508.07,630.05,1499.19,621.7,1499.19,610.51z"/>
			<path class="st5" d="M1577.78,627.03v-28.88h-9.74c-1.45,0-2.26-0.81-2.26-2.26v-2.03c0-1.45,0.81-2.2,2.26-2.2h27.26
				c1.45,0,2.32,0.75,2.32,2.2v2.03c0,1.45-0.87,2.26-2.32,2.26h-9.69v28.88c0,1.45-0.81,2.32-2.26,2.32h-3.36
				C1578.54,629.35,1577.78,628.48,1577.78,627.03z"/>
			<path class="st5" d="M1660.03,629.35h-4.52c-1.45,0-1.74-0.81-2.38-2.26l-2.03-4.87h-17.17l-2.09,4.87
				c-0.58,1.45-0.87,2.26-2.38,2.26h-4.23c-1.45,0-2.2-0.81-1.51-2.26l15.95-33.81c0.58-1.22,1.39-1.97,2.73-1.97h0.52
				c1.33,0,2.2,0.75,2.78,1.97l15.89,33.81C1662.23,628.54,1661.54,629.35,1660.03,629.35z M1648.72,616.6l-6.09-14.62l-6.26,14.62
				H1648.72z"/>
			<path class="st5" d="M1696.22,627.03v-33.12c0-1.45,0.87-2.26,2.32-2.26h13.69c12.06,0,19.78,7.54,19.78,18.79
				c0,11.37-7.71,18.91-19.78,18.91h-13.69C1697.09,629.35,1696.22,628.48,1696.22,627.03z M1712,622.86
				c7.19,0,12.01-4.76,12.01-12.35c0-7.66-4.81-12.35-12.01-12.35h-7.95v24.71H1712z"/>
			<path class="st5" d="M1799.4,629.35h-4.52c-1.45,0-1.74-0.81-2.38-2.26l-2.03-4.87h-17.17l-2.09,4.87
				c-0.58,1.45-0.87,2.26-2.38,2.26h-4.23c-1.45,0-2.2-0.81-1.51-2.26l15.95-33.81c0.58-1.22,1.39-1.97,2.73-1.97h0.52
				c1.33,0,2.2,0.75,2.78,1.97l15.89,33.81C1801.6,628.54,1800.91,629.35,1799.4,629.35z M1788.09,616.6l-6.09-14.62l-6.26,14.62
				H1788.09z"/>
		</g>
	</g>
</g>
</svg>
