<?xml version="1.0" encoding="utf-8"?>
<!-- Generator: Adobe Illustrator 26.5.0, SVG Export Plug-In . SVG Version: 6.00 Build 0)  -->
<svg version="1.1" xmlns="http://www.w3.org/2000/svg" xmlns:xlink="http://www.w3.org/1999/xlink" x="0px" y="0px"
	 viewBox="0 0 1920 1080" style="enable-background:new 0 0 1920 1080;" xml:space="preserve">
<style type="text/css">
	.st0{fill:#46AD37;}
	.st1{fill:#0BACAE;}
	.st2{fill:#086EBD;}
	.st3{fill:#F7B409;}
	.st4{fill:#052E59;}
	.st5{fill:#11B1B5;}
	.st6{fill:none;stroke:#052E59;stroke-miterlimit:10;}
	.st7{fill:#46B136;}
</style>
<g id="REF">
</g>
<g id="Logo">
	<g>
		<g>
			<g>
				<g>
					<circle class="st0" cx="613.5" cy="373.75" r="23"/>
					<path class="st0" d="M486.98,210.27l1.96-14.34c0.31-2.29,2.52-3.83,4.78-3.31c20.89,4.79,113.12,32.1,129.19,143.62
						c0.34,2.38-1.5,4.52-3.91,4.52h-13.03c-1.95,0-3.61-1.42-3.9-3.34c-2.64-17.49-19.77-98.52-112.2-122.8
						C487.94,214.1,486.71,212.23,486.98,210.27z"/>
				</g>
			</g>
			<g>
				<g>
					<circle class="st1" cx="454" cy="605.75" r="23"/>
					<path class="st1" d="M601.49,404.55l11.54,2.31c2.5,0.5,4.06,2.99,3.43,5.46c-3.22,12.56-14.93,49.17-48.96,86.44
						c-38.67,42.35-60.38,78.76-75.29,95.2c-1.87,2.06-5.15,1.88-6.82-0.34l-6.96-9.28c-1.16-1.54-1.19-3.65-0.08-5.22
						c8.3-11.74,42.88-60.19,73.14-95.36c29.96-34.82,41.56-65.71,44.89-76.2C597.08,405.4,599.27,404.11,601.49,404.55z"/>
				</g>
			</g>
			<g>
				<g>
					<circle class="st2" cx="454" cy="200.25" r="23"/>
					<path class="st2" d="M420.51,210.27l-1.96-14.34c-0.31-2.29-2.52-3.83-4.78-3.31c-20.89,4.79-113.12,32.1-129.19,143.62
						c-0.34,2.38,1.5,4.52,3.91,4.52h13.03c1.95,0,3.61-1.42,3.9-3.34c2.64-17.49,19.77-98.52,112.2-122.8
						C419.54,214.1,420.78,212.23,420.51,210.27z"/>
				</g>
			</g>
			<g>
				<g>
					<circle class="st3" cx="292.5" cy="373.75" r="23"/>
					<path class="st3" d="M305.99,404.55l-11.54,2.31c-2.5,0.5-4.06,2.99-3.43,5.46c3.22,12.56,14.93,49.17,48.96,86.44
						c38.67,42.35,60.38,78.76,75.29,95.2c1.87,2.06,5.15,1.88,6.82-0.34l6.96-9.28c1.16-1.54,1.19-3.65,0.08-5.22
						c-8.3-11.74-42.88-60.19-73.14-95.36c-29.96-34.82-41.56-65.71-44.89-76.2C310.41,405.4,308.21,404.11,305.99,404.55z"/>
				</g>
			</g>
			<g>
				<g>
					<circle class="st4" cx="454" cy="406.75" r="32"/>
					<path class="st4" d="M453.25,573.75h-5.16c-5.07,0-9.11-4.24-8.85-9.3c0.44-8.7,0.13-23.28-3.99-42.7c-7-33-35-52-55-70
						c-7.7-6.93-13.18-12.67-17-17.12c-4.77-5.55-3.89-13.97,1.97-18.36v0c5.42-4.07,13.09-3.11,17.37,2.15
						c36.52,44.96,71.66,42.33,71.66,42.33h-0.5c0,0,35.14,2.64,71.66-42.33c4.27-5.26,11.94-6.22,17.37-2.15l0,0
						c5.86,4.39,6.74,12.81,1.97,18.36c-3.82,4.44-9.3,10.19-17,17.12c-20,18-48,37-55,70c-4.12,19.42-4.43,33.99-3.99,42.7
						c0.26,5.06-3.78,9.3-8.85,9.3h-5.16H453.25z"/>
				</g>
			</g>
		</g>
		<g>
			<g>
				<path class="st4" d="M218.52,662.25h-15.16v68.64h15.16c3.86,0,7.15,3.15,7.15,7.15s-3.29,7.15-7.15,7.15h-45.9
					c-3.86,0-7.15-3.15-7.15-7.15s3.29-7.15,7.15-7.15h15.02v-68.64h-15.02c-3.86,0-7.15-3.15-7.15-7.15c0-4,3.29-7.15,7.15-7.15
					h45.9c3.86,0,7.15,3.15,7.15,7.15C225.67,659.11,222.38,662.25,218.52,662.25z"/>
				<path class="st4" d="M287.88,737.37c0,3.32-1.9,5.93-5.76,7.33c-3.18,1.14-7.62,1.93-12.19,1.93c-11.3,0-24.95-5.72-24.95-25.03
					v-34.32h-6.44c-3.75,0-6.79-3.04-6.79-6.79s3.04-6.79,6.79-6.79h6.44v-13.23c0-4.15,3.36-7.51,7.51-7.51
					c4.15,0,7.51,3.36,7.51,7.51v13.23h18.41c3.75,0,6.79,3.04,6.79,6.79s-3.04,6.79-6.79,6.79h-18.41v32.03
					c0,9.29,5.36,13.01,12.08,13.01c2.22,0,4.65-0.43,5.97-0.79c1.79-0.5,2.75-0.57,3.36-0.57
					C285.19,730.97,287.88,733.61,287.88,737.37z"/>
				<path class="st4" d="M360.23,700.87v37.47c0,4.15-3.36,7.58-7.51,7.58c-4.15,0-7.51-3.43-7.51-7.58v-4.33
					c-4.93,8.4-13.51,12.62-23.45,12.62c-13.16,0-25.31-7.44-25.31-22.59c0-14.73,13.01-23.17,30.17-23.17
					c6.01,0,11.87,1.14,18.59,3.72v-2.86c0-10.3-4.86-15.87-18.02-15.87c-6.26,0-11.19,1.68-14.05,2.93c-2.57,1.14-4,1.86-6.36,1.86
					c-2.9,0-5.83-2.22-5.83-6.18c0-2.57,1.39-5.15,5.4-7.08c4.93-2.36,13.76-5.11,23.77-5.11
					C351.15,672.26,360.23,681.13,360.23,700.87z M345.22,714.74c-5.86-2.72-11.73-3.86-17.02-3.86c-11.3,0-16.73,4.29-16.73,12.16
					c0,7.72,5.15,11.44,13.16,11.44C335.64,734.47,345.22,727.61,345.22,714.74z"/>
				<path class="st4" d="M377.82,649.38c0-5.58,4.29-10.01,10.01-10.01c5.58,0,10.01,4.43,10.01,10.01
					c0,5.72-4.43,10.01-10.01,10.01C382.11,659.39,377.82,655.1,377.82,649.38z M395.26,680.56v57.77c0,4.15-3.36,7.58-7.51,7.58
					c-4.15,0-7.51-3.43-7.51-7.58v-57.77c0-4.15,3.36-7.58,7.51-7.58C391.9,672.98,395.26,676.41,395.26,680.56z"/>
				<path class="st4" d="M462.12,737.37c0,3.32-1.9,5.93-5.76,7.33c-3.18,1.14-7.62,1.93-12.19,1.93c-11.3,0-24.95-5.72-24.95-25.03
					v-34.32h-6.44c-3.75,0-6.79-3.04-6.79-6.79s3.04-6.79,6.79-6.79h6.44v-13.23c0-4.15,3.36-7.51,7.51-7.51
					c4.15,0,7.51,3.36,7.51,7.51v13.23h18.41c3.75,0,6.79,3.04,6.79,6.79s-3.04,6.79-6.79,6.79h-18.41v32.03
					c0,9.29,5.36,13.01,12.08,13.01c2.22,0,4.65-0.43,5.97-0.79c1.79-0.5,2.75-0.57,3.36-0.57
					C459.44,730.97,462.12,733.61,462.12,737.37z"/>
				<path class="st4" d="M471.48,649.38c0-5.58,4.29-10.01,10.01-10.01c5.58,0,10.01,4.43,10.01,10.01
					c0,5.72-4.43,10.01-10.01,10.01C475.77,659.39,471.48,655.1,471.48,649.38z M488.93,680.56v57.77c0,4.15-3.36,7.58-7.51,7.58
					c-4.15,0-7.51-3.43-7.51-7.58v-57.77c0-4.15,3.36-7.58,7.51-7.58C485.57,672.98,488.93,676.41,488.93,680.56z"/>
				<path class="st4" d="M573.3,698.72v39.61c0,4.15-3.36,7.58-7.51,7.58c-4.15,0-7.51-3.43-7.51-7.58v-33.18
					c0-14.16-7.87-18.59-16.45-18.59c-7.87,0-17.88,4.43-17.88,18.59v33.18c0,4.15-3.36,7.58-7.51,7.58c-4.15,0-7.51-3.43-7.51-7.58
					v-57.77c0-4.15,3.36-7.58,7.51-7.58c4.15,0,7.51,3.43,7.51,7.58v3.15c2.86-5.15,9.29-11.44,22.17-11.44
					C560.43,672.26,573.3,682.28,573.3,698.72z"/>
				<path class="st4" d="M661.96,680.56v58.92c0,21.81-14.01,35.39-38.18,35.39c-8.19,0-15.98-1.54-22.56-4.36
					c-2.5-1.07-4.29-3.54-4.29-6.43c0-3.9,3.15-7.04,7.04-7.04c0.89,0,1.75,0.14,2.5,0.43c5.61,2.15,11.33,3.11,16.87,3.11
					c14.87,0,23.6-7.15,23.6-21.09v-8.9c-5.36,6.4-13.37,10.33-23.6,10.33c-20.02,0-34.32-15.02-34.32-34.32s14.3-34.32,34.32-34.32
					c10.23,0,18.23,3.93,23.6,10.33v-2.04c0-4.15,3.36-7.58,7.51-7.58C658.6,672.98,661.96,676.41,661.96,680.56z M647.66,706.59
					c0-12.87-9.3-20.74-21.45-20.74s-21.45,7.87-21.45,20.74c0,12.87,9.29,20.74,21.45,20.74S647.66,719.46,647.66,706.59z"/>
				<path class="st4" d="M742.54,700.87v37.47c0,4.15-3.36,7.58-7.51,7.58s-7.51-3.43-7.51-7.58v-4.33
					c-4.93,8.4-13.51,12.62-23.45,12.62c-13.16,0-25.31-7.44-25.31-22.59c0-14.73,13.01-23.17,30.17-23.17
					c6.01,0,11.87,1.14,18.59,3.72v-2.86c0-10.3-4.86-15.87-18.02-15.87c-6.26,0-11.19,1.68-14.05,2.93c-2.57,1.14-4,1.86-6.36,1.86
					c-2.9,0-5.83-2.22-5.83-6.18c0-2.57,1.39-5.15,5.4-7.08c4.93-2.36,13.76-5.11,23.77-5.11
					C733.46,672.26,742.54,681.13,742.54,700.87z M727.52,714.74c-5.86-2.72-11.73-3.86-17.02-3.86c-11.3,0-16.73,4.29-16.73,12.16
					c0,7.72,5.15,11.44,13.16,11.44C717.94,734.47,727.52,727.61,727.52,714.74z"/>
			</g>
			<g>
				<path class="st5" d="M165.8,799.93c0-11.19,8.87-19.55,20.24-19.55c5.8,0,10.9,2.26,14.44,5.97c1.04,1.04,0.99,2.26-0.12,3.13
					l-2.09,1.8c-1.1,0.87-2.09,0.75-3.19-0.17c-2.38-2.26-5.45-3.65-8.99-3.65c-6.9,0-12.3,5.22-12.3,12.47s5.39,12.47,12.3,12.47
					c3.54,0,6.67-1.39,8.99-3.65c1.1-0.99,2.09-1.1,3.19-0.17l2.09,1.74c1.1,0.93,1.16,2.15,0.12,3.13
					c-3.54,3.77-8.64,6.03-14.5,6.03C174.67,819.48,165.8,811.12,165.8,799.93z"/>
				<path class="st5" d="M233.42,799.93c0-11.19,8.87-19.55,20.47-19.55c11.66,0,20.47,8.35,20.47,19.55
					c0,11.14-8.82,19.55-20.47,19.55C242.3,819.48,233.42,811.12,233.42,799.93z M266.43,799.93c0-7.31-5.51-12.47-12.53-12.47
					s-12.47,5.16-12.47,12.47c0,7.25,5.45,12.47,12.47,12.47S266.43,807.18,266.43,799.93z"/>
				<path class="st5" d="M343.04,783.34v33.29c0,1.68-1.22,2.44-2.61,2.44h-0.46c-1.33,0-2.32-0.75-3.42-2.09l-18.68-22.27v21.75
					c0,1.45-0.75,2.32-2.2,2.32h-3.31c-1.45,0-2.26-0.87-2.26-2.32v-33.23c0-1.74,1.22-2.44,2.61-2.44h0.46
					c1.33,0,2.32,0.75,3.42,2.09l18.68,22.21v-21.75c0-1.45,0.75-2.26,2.2-2.26h3.31C342.23,781.08,343.04,781.89,343.04,783.34z"/>
				<path class="st5" d="M381.09,816.46v-33.12c0-1.45,0.87-2.26,2.32-2.26h22.27c1.45,0,2.32,0.75,2.32,2.2v2.03
					c0,1.45-0.87,2.26-2.32,2.26h-16.76v9.16h12.59c1.45,0,2.32,0.75,2.32,2.2v1.74c0,1.45-0.87,2.26-2.32,2.26h-12.59v9.34h16.88
					c1.45,0,2.26,0.75,2.26,2.2v2.03c0,1.45-0.81,2.26-2.26,2.26h-22.39C381.96,818.78,381.09,817.91,381.09,816.46z"/>
				<path class="st5" d="M440.19,799.93c0-11.19,8.87-19.55,20.24-19.55c5.8,0,10.9,2.26,14.44,5.97c1.04,1.04,0.99,2.26-0.12,3.13
					l-2.09,1.8c-1.1,0.87-2.09,0.75-3.19-0.17c-2.38-2.26-5.45-3.65-8.99-3.65c-6.9,0-12.3,5.22-12.3,12.47s5.39,12.47,12.3,12.47
					c3.54,0,6.67-1.39,8.99-3.65c1.1-0.99,2.09-1.1,3.19-0.17l2.09,1.74c1.1,0.93,1.16,2.15,0.12,3.13
					c-3.54,3.77-8.64,6.03-14.5,6.03C449.07,819.48,440.19,811.12,440.19,799.93z"/>
				<path class="st5" d="M518.78,816.46v-28.88h-9.74c-1.45,0-2.26-0.81-2.26-2.26v-2.03c0-1.45,0.81-2.2,2.26-2.2h27.26
					c1.45,0,2.32,0.75,2.32,2.2v2.03c0,1.45-0.87,2.26-2.32,2.26h-9.69v28.88c0,1.45-0.81,2.32-2.26,2.32h-3.36
					C519.54,818.78,518.78,817.91,518.78,816.46z"/>
				<path class="st5" d="M601.03,818.78h-4.52c-1.45,0-1.74-0.81-2.38-2.26l-2.03-4.87h-17.17l-2.09,4.87
					c-0.58,1.45-0.87,2.26-2.38,2.26h-4.23c-1.45,0-2.2-0.81-1.51-2.26l15.95-33.81c0.58-1.22,1.39-1.97,2.73-1.97h0.52
					c1.33,0,2.2,0.75,2.78,1.97l15.89,33.81C603.23,817.97,602.54,818.78,601.03,818.78z M589.72,806.02l-6.09-14.62l-6.26,14.62
					H589.72z"/>
				<path class="st5" d="M637.22,816.46v-33.12c0-1.45,0.87-2.26,2.32-2.26h13.69c12.06,0,19.78,7.54,19.78,18.79
					c0,11.37-7.71,18.91-19.78,18.91h-13.69C638.09,818.78,637.22,817.91,637.22,816.46z M653,812.28c7.19,0,12.01-4.76,12.01-12.35
					c0-7.66-4.81-12.35-12.01-12.35h-7.95v24.71H653z"/>
				<path class="st5" d="M740.4,818.78h-4.52c-1.45,0-1.74-0.81-2.38-2.26l-2.03-4.87H714.3l-2.09,4.87
					c-0.58,1.45-0.87,2.26-2.38,2.26h-4.23c-1.45,0-2.2-0.81-1.51-2.26l15.95-33.81c0.58-1.22,1.39-1.97,2.73-1.97h0.52
					c1.33,0,2.2,0.75,2.78,1.97l15.89,33.81C742.6,817.97,741.91,818.78,740.4,818.78z M729.09,806.02L723,791.4l-6.26,14.62H729.09
					z"/>
			</g>
		</g>
		<g>
			<g>
				<line class="st6" x1="527" y1="850.75" x2="751.25" y2="850.75"/>
				<line class="st6" x1="156.75" y1="850.75" x2="379.75" y2="850.75"/>
				<circle class="st4" cx="387.75" cy="850.75" r="8"/>
				<circle class="st3" cx="420.75" cy="850.75" r="8"/>
				<circle class="st7" cx="453.75" cy="850.75" r="8"/>
				<circle class="st1" cx="486.75" cy="850.75" r="8"/>
				<circle class="st5" cx="519.75" cy="850.75" r="8"/>
			</g>
			<g>
				<path class="st4" d="M169.64,881.3h1.9v15.23h-1.9V881.3z"/>
				<path class="st4" d="M176.08,881.38h0.98l9.8,11.28v-11.28h1.88v15.09h-0.95l-9.83-11.28v11.28h-1.88V881.38z"/>
				<path class="st4" d="M192.04,888.97c0-4.59,3.3-7.92,7.81-7.92s7.84,3.33,7.84,7.92s-3.33,7.9-7.84,7.9
					S192.04,893.56,192.04,888.97z M205.73,888.97c0-3.58-2.49-6.16-5.88-6.16c-3.36,0-5.88,2.58-5.88,6.16s2.52,6.13,5.88,6.13
					C203.24,895.1,205.73,892.53,205.73,888.97z"/>
				<path class="st4" d="M215.28,896.47L208,881.38h2.04l5.82,12.1l5.82-12.1h2.07l-7.31,15.09H215.28z"/>
				<path class="st4" d="M229.53,881.38h1.57l7.48,15.09h-2.04l-2.04-4.06h-8.34l-1.99,4.06h-2.02L229.53,881.38z M233.64,890.65
					l-3.33-6.69l-3.3,6.69H233.64z"/>
				<path class="st4" d="M254.42,892.78c-1.4,2.63-3.89,4.09-6.94,4.09c-4.51,0-7.81-3.3-7.81-7.9s3.3-7.92,7.81-7.92
					c2.8,0,5.18,1.29,6.61,3.53l-1.57,1.12c-0.95-1.82-2.86-2.88-5.04-2.88c-3.36,0-5.88,2.58-5.88,6.16s2.52,6.13,5.88,6.13
					c2.35,0,4.23-1.18,5.43-3.44L254.42,892.78z M244.15,901.15c1.32,0.28,2.35,0.48,3.22,0.48c1.18,0,1.79-0.42,1.79-1.23
					c0-1.01-0.62-1.43-1.96-1.43c-0.2,0-0.42,0-0.64,0.03v-2.52h0.87v1.51h0.28c1.93,0,2.97,0.84,2.97,2.35
					c0,1.51-1.04,2.41-3.08,2.41c-1.23,0-2.32-0.25-3.44-0.56V901.15z"/>
				<path class="st4" d="M262.91,881.38h1.57l7.48,15.09h-2.04l-2.04-4.06h-8.34l-1.99,4.06h-2.02L262.91,881.38z M265.09,878.41
					c-0.28,0-0.59-0.06-0.9-0.14l-1.32-0.42c-0.2-0.06-0.42-0.11-0.73-0.11c-0.53,0-0.98,0.34-1.26,0.98h-1.09
					c0.39-1.62,1.34-2.49,2.66-2.49c0.25,0,0.5,0.03,0.73,0.11l1.32,0.42c0.31,0.11,0.59,0.17,0.76,0.17c0.62,0,1.01-0.34,1.32-1.01
					h1.12C267.22,877.57,266.35,878.41,265.09,878.41z M267.02,890.65l-3.33-6.69l-3.3,6.69H267.02z"/>
				<path class="st4" d="M273.04,888.97c0-4.59,3.3-7.92,7.81-7.92s7.84,3.33,7.84,7.92s-3.33,7.9-7.84,7.9
					S273.04,893.56,273.04,888.97z M286.73,888.97c0-3.58-2.49-6.16-5.88-6.16c-3.36,0-5.88,2.58-5.88,6.16s2.52,6.13,5.88,6.13
					C284.24,895.1,286.73,892.53,286.73,888.97z"/>
				<path class="st4" d="M301.24,881.38h1.74l6.1,9.24l6.13-9.24h1.71v15.09h-1.85v-11.79l-5.99,8.93l-5.99-8.93v11.79h-1.85V881.38
					z"/>
				<path class="st4" d="M326.46,881.38h1.57l7.48,15.09h-2.04l-2.04-4.06h-8.34l-1.99,4.06h-2.02L326.46,881.38z M330.58,890.65
					l-3.33-6.69l-3.3,6.69H330.58z"/>
				<path class="st4" d="M337.8,881.35h1.88v7.53l8.65-7.53h2.46l-6.1,5.38l7.03,9.74h-2.27l-6.1-8.46l-3.67,3.08v5.38h-1.88V881.35
					z"/>
				<path class="st4" d="M354.21,881.38h11.87v1.74h-10v4.42h6.05v1.74h-6.05v5.46h10.61v1.74h-12.49V881.38z"/>
				<path class="st4" d="M369.42,881.38h8.65c2.97,0,4.73,1.57,4.73,4.2c0,2.13-1.37,3.86-3.58,4.26l3.78,6.64h-2.07l-3.78-6.61
					h-5.85v6.61h-1.88V881.38z M377.96,888.1c1.9,0,2.88-0.87,2.88-2.46c0-1.57-0.98-2.52-2.8-2.52h-6.75v4.98H377.96z"/>
				<path class="st4" d="M395.46,881.38h8.65c2.97,0,4.73,1.57,4.73,4.09c0,2.52-1.65,4.4-4.48,4.4h-7.03v6.61h-1.88V881.38z
					 M404,888.1c1.9,0,2.88-0.87,2.88-2.46c0-1.57-0.98-2.52-2.8-2.52h-6.75v4.98H404z"/>
				<path class="st4" d="M414.61,881.38h1.57l7.48,15.09h-2.04l-2.04-4.06h-8.34l-1.99,4.06h-2.02L414.61,881.38z M418.72,890.65
					l-3.33-6.69l-3.3,6.69H418.72z"/>
				<path class="st4" d="M425.86,881.38h8.65c2.97,0,4.73,1.57,4.73,4.2c0,2.13-1.37,3.86-3.58,4.26l3.78,6.64h-2.07l-3.78-6.61
					h-5.85v6.61h-1.88V881.38z M434.4,888.1c1.9,0,2.88-0.87,2.88-2.46c0-1.57-0.98-2.52-2.8-2.52h-6.75v4.98H434.4z"/>
				<path class="st4" d="M446.75,881.38h1.57l7.48,15.09h-2.04l-2.04-4.06h-8.34l-1.99,4.06h-2.02L446.75,881.38z M450.87,890.65
					l-3.33-6.69l-3.3,6.69H450.87z"/>
				<path class="st4" d="M472.54,881.38h1.57l7.48,15.09h-2.04l-2.04-4.06h-8.34l-1.99,4.06h-2.02L472.54,881.38z M476.65,890.65
					l-3.33-6.69l-3.3,6.69H476.65z"/>
				<path class="st4" d="M506.75,892.78c-1.4,2.63-3.89,4.09-6.94,4.09c-4.51,0-7.81-3.3-7.81-7.9s3.3-7.92,7.81-7.92
					c2.8,0,5.18,1.29,6.61,3.53l-1.57,1.12c-0.95-1.82-2.86-2.88-5.04-2.88c-3.36,0-5.88,2.58-5.88,6.16s2.52,6.13,5.88,6.13
					c2.35,0,4.23-1.18,5.43-3.44L506.75,892.78z"/>
				<path class="st4" d="M510.14,881.3h1.9v15.23h-1.9V881.3z"/>
				<path class="st4" d="M530.97,888.97c0,4.34-2.88,7.5-7.92,7.5h-6.47v-15.09h6.47C527.95,881.38,530.97,884.6,530.97,888.97z
					 M518.46,883.12v11.62h4.59c3.89,0,5.99-2.41,5.99-5.8c0-3.39-2.24-5.82-5.99-5.82H518.46z"/>
				<path class="st4" d="M538.87,881.38h1.57l7.48,15.09h-2.04l-2.04-4.06h-8.34l-1.99,4.06h-2.02L538.87,881.38z M542.99,890.65
					l-3.33-6.69l-3.3,6.69H542.99z"/>
				<path class="st4" d="M564.6,888.97c0,4.34-2.88,7.5-7.92,7.5h-6.47v-15.09h6.47C561.58,881.38,564.6,884.6,564.6,888.97z
					 M552.08,883.12v11.62h4.59c3.89,0,5.99-2.41,5.99-5.8c0-3.39-2.24-5.82-5.99-5.82H552.08z"/>
				<path class="st4" d="M572.5,881.38h1.57l7.48,15.09h-2.04l-2.04-4.06h-8.34l-1.99,4.06h-2.02L572.5,881.38z M576.61,890.65
					l-3.33-6.69l-3.3,6.69H576.61z"/>
				<path class="st4" d="M583.84,881.38h0.98l9.8,11.28v-11.28h1.88v15.09h-0.95l-9.83-11.28v11.28h-1.88V881.38z"/>
				<path class="st4" d="M601.03,881.3h1.9v15.23h-1.9V881.3z"/>
				<path class="st4" d="M612.59,881.38h1.57l7.48,15.09h-2.04l-2.04-4.06h-8.34l-1.99,4.06h-2.02L612.59,881.38z M616.71,890.65
					l-3.33-6.69l-3.3,6.69H616.71z"/>
				<path class="st4" d="M633.28,881.3h1.9v15.23h-1.9V881.3z"/>
				<path class="st4" d="M639.72,881.38h0.98l9.8,11.28v-11.28h1.88v15.09h-0.95l-9.83-11.28v11.28h-1.88V881.38z"/>
				<path class="st4" d="M659.52,883.12h-6.36v-1.74h14.59v1.74h-6.36v13.36h-1.88V883.12z"/>
				<path class="st4" d="M668.56,881.38h11.87v1.74h-10v4.42h6.05v1.74h-6.05v5.46h10.61v1.74h-12.49V881.38z"/>
				<path class="st4" d="M695.42,890.17h-4.12v-1.74h5.99v4.54c-1.46,2.52-3.86,3.89-6.83,3.89c-4.51,0-7.81-3.3-7.81-7.9
					s3.3-7.92,7.81-7.92c2.8,0,5.18,1.29,6.61,3.53l-1.57,1.12c-0.95-1.82-2.86-2.88-5.04-2.88c-3.36,0-5.88,2.58-5.88,6.16
					s2.52,6.13,5.88,6.13c2.1,0,3.75-0.9,4.96-2.72V890.17z"/>
				<path class="st4" d="M701.07,881.38h8.65c2.97,0,4.73,1.57,4.73,4.2c0,2.13-1.37,3.86-3.58,4.26l3.78,6.64h-2.07l-3.78-6.61
					h-5.85v6.61h-1.88V881.38z M709.61,888.1c1.9,0,2.88-0.87,2.88-2.46c0-1.57-0.98-2.52-2.8-2.52h-6.75v4.98H709.61z"/>
				<path class="st4" d="M721.96,881.38h1.57l7.48,15.09h-2.04l-2.04-4.06h-8.34l-1.99,4.06h-2.02L721.96,881.38z M726.07,890.65
					l-3.33-6.69l-3.3,6.69H726.07z"/>
				<path class="st4" d="M733.3,881.38h1.88v13.36h9.86v1.74H733.3V881.38z"/>
			</g>
		</g>
	</g>
	<g>
		<line class="st6" x1="902" y1="601.69" x2="902" y2="825.94"/>
		<line class="st6" x1="902" y1="231.44" x2="902" y2="454.44"/>
		<circle class="st4" cx="902" cy="462.44" r="8"/>
		<circle class="st3" cx="902" cy="495.44" r="8"/>
		<circle class="st7" cx="902" cy="528.44" r="8"/>
		<circle class="st1" cx="902" cy="561.44" r="8"/>
		<circle class="st5" cx="902" cy="594.44" r="8"/>
	</g>
	<g>
		<g>
			<g>
				<g>
					<circle class="st0" cx="1181.46" cy="522.78" r="13.54"/>
					<path class="st0" d="M1107,426.56l1.15-8.44c0.18-1.35,1.48-2.25,2.81-1.95c12.29,2.82,66.58,18.89,76.04,84.53
						c0.2,1.4-0.88,2.66-2.3,2.66h-7.67c-1.15,0-2.12-0.83-2.29-1.97c-1.56-10.29-11.63-57.98-66.04-72.28
						C1107.57,428.82,1106.84,427.72,1107,426.56z"/>
				</g>
			</g>
			<g>
				<g>
					<circle class="st1" cx="1087.59" cy="659.33" r="13.54"/>
					<path class="st1" d="M1174.39,540.91l6.79,1.36c1.47,0.29,2.39,1.76,2.02,3.21c-1.9,7.39-8.79,28.94-28.81,50.87
						c-22.76,24.92-35.54,46.36-44.31,56.03c-1.1,1.21-3.03,1.11-4.01-0.2l-4.1-5.46c-0.68-0.91-0.7-2.15-0.04-3.07
						c4.88-6.91,25.24-35.42,43.05-56.12c17.63-20.49,24.46-38.67,26.42-44.85C1171.8,541.41,1173.09,540.65,1174.39,540.91z"/>
				</g>
			</g>
			<g>
				<g>
					<circle class="st2" cx="1087.59" cy="420.67" r="13.54"/>
					<path class="st2" d="M1067.88,426.56l-1.15-8.44c-0.18-1.35-1.48-2.25-2.81-1.95c-12.29,2.82-66.58,18.89-76.04,84.53
						c-0.2,1.4,0.88,2.66,2.3,2.66h7.67c1.15,0,2.12-0.83,2.29-1.97c1.56-10.29,11.63-57.98,66.04-72.28
						C1067.31,428.82,1068.03,427.72,1067.88,426.56z"/>
				</g>
			</g>
			<g>
				<g>
					<circle class="st3" cx="992.54" cy="522.78" r="13.54"/>
					<path class="st3" d="M1000.48,540.91l-6.79,1.36c-1.47,0.29-2.39,1.76-2.02,3.21c1.9,7.39,8.79,28.94,28.81,50.87
						c22.76,24.92,35.54,46.36,44.31,56.03c1.1,1.21,3.03,1.11,4.01-0.2l4.1-5.46c0.68-0.91,0.7-2.15,0.04-3.07
						c-4.88-6.91-25.24-35.42-43.05-56.12c-17.63-20.49-24.46-38.67-26.42-44.85C1003.08,541.41,1001.79,540.65,1000.48,540.91z"/>
				</g>
			</g>
			<g>
				<g>
					<circle class="st4" cx="1087.59" cy="542.21" r="18.83"/>
					<path class="st4" d="M1087.15,640.5h-3.04c-2.98,0-5.36-2.49-5.21-5.47c0.26-5.12,0.08-13.7-2.35-25.13
						c-4.12-19.42-20.6-30.6-32.37-41.2c-4.53-4.08-7.76-7.46-10.01-10.07c-2.81-3.27-2.29-8.22,1.16-10.8l0,0
						c3.19-2.39,7.71-1.83,10.22,1.26c21.5,26.46,42.18,24.91,42.18,24.91h-0.29c0,0,20.68,1.55,42.18-24.91
						c2.52-3.1,7.03-3.66,10.22-1.26l0,0c3.45,2.58,3.97,7.54,1.16,10.8c-2.25,2.62-5.47,6-10.01,10.07
						c-11.77,10.59-28.25,21.78-32.37,41.2c-2.42,11.43-2.61,20.01-2.35,25.13c0.15,2.98-2.23,5.47-5.21,5.47h-3.04H1087.15z"/>
				</g>
			</g>
		</g>
		<g>
			<g>
				<path class="st4" d="M1277.52,431.19h-15.16v68.64h15.16c3.86,0,7.15,3.15,7.15,7.15s-3.29,7.15-7.15,7.15h-45.9
					c-3.86,0-7.15-3.15-7.15-7.15s3.29-7.15,7.15-7.15h15.02v-68.64h-15.02c-3.86,0-7.15-3.15-7.15-7.15c0-4,3.29-7.15,7.15-7.15
					h45.9c3.86,0,7.15,3.15,7.15,7.15C1284.67,428.05,1281.38,431.19,1277.52,431.19z"/>
				<path class="st4" d="M1346.88,506.31c0,3.32-1.9,5.93-5.76,7.33c-3.18,1.14-7.62,1.93-12.19,1.93
					c-11.3,0-24.95-5.72-24.95-25.03v-34.32h-6.44c-3.75,0-6.79-3.04-6.79-6.79s3.04-6.79,6.79-6.79h6.44v-13.23
					c0-4.15,3.36-7.51,7.51-7.51c4.15,0,7.51,3.36,7.51,7.51v13.23h18.41c3.75,0,6.79,3.04,6.79,6.79s-3.04,6.79-6.79,6.79h-18.41
					v32.03c0,9.29,5.36,13.01,12.08,13.01c2.22,0,4.65-0.43,5.97-0.79c1.79-0.5,2.75-0.57,3.36-0.57
					C1344.19,499.91,1346.88,502.55,1346.88,506.31z"/>
				<path class="st4" d="M1419.23,469.81v37.47c0,4.15-3.36,7.58-7.51,7.58c-4.15,0-7.51-3.43-7.51-7.58v-4.33
					c-4.93,8.4-13.51,12.62-23.45,12.62c-13.16,0-25.31-7.44-25.31-22.59c0-14.73,13.01-23.17,30.17-23.17
					c6.01,0,11.87,1.14,18.59,3.72v-2.86c0-10.3-4.86-15.87-18.02-15.87c-6.26,0-11.19,1.68-14.05,2.93c-2.57,1.14-4,1.86-6.36,1.86
					c-2.9,0-5.83-2.22-5.83-6.18c0-2.57,1.39-5.15,5.4-7.08c4.93-2.36,13.76-5.11,23.77-5.11
					C1410.15,441.21,1419.23,450.07,1419.23,469.81z M1404.22,483.68c-5.86-2.72-11.73-3.86-17.02-3.86
					c-11.3,0-16.73,4.29-16.73,12.16c0,7.72,5.15,11.44,13.16,11.44C1394.64,503.41,1404.22,496.55,1404.22,483.68z"/>
				<path class="st4" d="M1436.82,418.32c0-5.58,4.29-10.01,10.01-10.01c5.58,0,10.01,4.43,10.01,10.01
					c0,5.72-4.43,10.01-10.01,10.01C1441.11,428.33,1436.82,424.04,1436.82,418.32z M1454.26,449.5v57.77
					c0,4.15-3.36,7.58-7.51,7.58c-4.15,0-7.51-3.43-7.51-7.58V449.5c0-4.15,3.36-7.58,7.51-7.58
					C1450.9,441.92,1454.26,445.35,1454.26,449.5z"/>
				<path class="st4" d="M1521.12,506.31c0,3.32-1.9,5.93-5.76,7.33c-3.18,1.14-7.62,1.93-12.19,1.93
					c-11.3,0-24.95-5.72-24.95-25.03v-34.32h-6.44c-3.75,0-6.79-3.04-6.79-6.79s3.04-6.79,6.79-6.79h6.44v-13.23
					c0-4.15,3.36-7.51,7.51-7.51c4.15,0,7.51,3.36,7.51,7.51v13.23h18.41c3.75,0,6.79,3.04,6.79,6.79s-3.04,6.79-6.79,6.79h-18.41
					v32.03c0,9.29,5.36,13.01,12.08,13.01c2.22,0,4.65-0.43,5.97-0.79c1.79-0.5,2.75-0.57,3.36-0.57
					C1518.44,499.91,1521.12,502.55,1521.12,506.31z"/>
				<path class="st4" d="M1530.48,418.32c0-5.58,4.29-10.01,10.01-10.01c5.58,0,10.01,4.43,10.01,10.01
					c0,5.72-4.43,10.01-10.01,10.01C1534.77,428.33,1530.48,424.04,1530.48,418.32z M1547.93,449.5v57.77
					c0,4.15-3.36,7.58-7.51,7.58c-4.15,0-7.51-3.43-7.51-7.58V449.5c0-4.15,3.36-7.58,7.51-7.58
					C1544.57,441.92,1547.93,445.35,1547.93,449.5z"/>
				<path class="st4" d="M1632.3,467.66v39.61c0,4.15-3.36,7.58-7.51,7.58c-4.15,0-7.51-3.43-7.51-7.58V474.1
					c0-14.16-7.87-18.59-16.45-18.59c-7.87,0-17.88,4.43-17.88,18.59v33.18c0,4.15-3.36,7.58-7.51,7.58c-4.15,0-7.51-3.43-7.51-7.58
					V449.5c0-4.15,3.36-7.58,7.51-7.58c4.15,0,7.51,3.43,7.51,7.58v3.15c2.86-5.15,9.29-11.44,22.17-11.44
					C1619.43,441.21,1632.3,451.22,1632.3,467.66z"/>
				<path class="st4" d="M1720.96,449.5v58.92c0,21.81-14.01,35.39-38.18,35.39c-8.19,0-15.98-1.54-22.56-4.36
					c-2.5-1.07-4.29-3.54-4.29-6.43c0-3.9,3.15-7.04,7.04-7.04c0.89,0,1.75,0.14,2.5,0.43c5.61,2.15,11.33,3.11,16.87,3.11
					c14.87,0,23.6-7.15,23.6-21.09v-8.9c-5.36,6.4-13.37,10.33-23.6,10.33c-20.02,0-34.32-15.02-34.32-34.32s14.3-34.32,34.32-34.32
					c10.23,0,18.23,3.93,23.6,10.33v-2.04c0-4.15,3.36-7.58,7.51-7.58C1717.6,441.92,1720.96,445.35,1720.96,449.5z M1706.66,475.53
					c0-12.87-9.3-20.74-21.45-20.74s-21.45,7.87-21.45,20.74c0,12.87,9.29,20.74,21.45,20.74S1706.66,488.4,1706.66,475.53z"/>
				<path class="st4" d="M1801.54,469.81v37.47c0,4.15-3.36,7.58-7.51,7.58s-7.51-3.43-7.51-7.58v-4.33
					c-4.93,8.4-13.51,12.62-23.45,12.62c-13.16,0-25.31-7.44-25.31-22.59c0-14.73,13.01-23.17,30.17-23.17
					c6.01,0,11.87,1.14,18.59,3.72v-2.86c0-10.3-4.86-15.87-18.02-15.87c-6.26,0-11.19,1.68-14.05,2.93c-2.57,1.14-4,1.86-6.36,1.86
					c-2.9,0-5.83-2.22-5.83-6.18c0-2.57,1.39-5.15,5.4-7.08c4.93-2.36,13.76-5.11,23.77-5.11
					C1792.46,441.21,1801.54,450.07,1801.54,469.81z M1786.52,483.68c-5.86-2.72-11.73-3.86-17.02-3.86
					c-11.3,0-16.73,4.29-16.73,12.16c0,7.72,5.15,11.44,13.16,11.44C1776.94,503.41,1786.52,496.55,1786.52,483.68z"/>
			</g>
			<g>
				<path class="st5" d="M1224.8,568.87c0-11.19,8.87-19.55,20.24-19.55c5.8,0,10.9,2.26,14.44,5.97c1.04,1.04,0.99,2.26-0.12,3.13
					l-2.09,1.8c-1.1,0.87-2.09,0.75-3.19-0.17c-2.38-2.26-5.45-3.65-8.99-3.65c-6.9,0-12.3,5.22-12.3,12.47s5.39,12.47,12.3,12.47
					c3.54,0,6.67-1.39,8.99-3.65c1.1-0.99,2.09-1.1,3.19-0.17l2.09,1.74c1.1,0.93,1.16,2.15,0.12,3.13
					c-3.54,3.77-8.64,6.03-14.5,6.03C1233.67,588.42,1224.8,580.06,1224.8,568.87z"/>
				<path class="st5" d="M1292.42,568.87c0-11.19,8.87-19.55,20.47-19.55c11.66,0,20.47,8.35,20.47,19.55
					c0,11.14-8.82,19.55-20.47,19.55C1301.3,588.42,1292.42,580.06,1292.42,568.87z M1325.43,568.87c0-7.31-5.51-12.47-12.53-12.47
					s-12.47,5.16-12.47,12.47c0,7.25,5.45,12.47,12.47,12.47S1325.43,576.12,1325.43,568.87z"/>
				<path class="st5" d="M1402.04,552.28v33.29c0,1.68-1.22,2.44-2.61,2.44h-0.46c-1.33,0-2.32-0.75-3.42-2.09l-18.68-22.27v21.75
					c0,1.45-0.75,2.32-2.2,2.32h-3.31c-1.45,0-2.26-0.87-2.26-2.32v-33.23c0-1.74,1.22-2.44,2.61-2.44h0.46
					c1.33,0,2.32,0.75,3.42,2.09l18.68,22.21v-21.75c0-1.45,0.75-2.26,2.2-2.26h3.31C1401.23,550.02,1402.04,550.83,1402.04,552.28z
					"/>
				<path class="st5" d="M1440.09,585.4v-33.12c0-1.45,0.87-2.26,2.32-2.26h22.27c1.45,0,2.32,0.75,2.32,2.2v2.03
					c0,1.45-0.87,2.26-2.32,2.26h-16.76v9.16h12.59c1.45,0,2.32,0.75,2.32,2.2v1.74c0,1.45-0.87,2.26-2.32,2.26h-12.59v9.34h16.88
					c1.45,0,2.26,0.75,2.26,2.2v2.03c0,1.45-0.81,2.26-2.26,2.26h-22.39C1440.96,587.72,1440.09,586.85,1440.09,585.4z"/>
				<path class="st5" d="M1499.19,568.87c0-11.19,8.87-19.55,20.24-19.55c5.8,0,10.9,2.26,14.44,5.97c1.04,1.04,0.99,2.26-0.12,3.13
					l-2.09,1.8c-1.1,0.87-2.09,0.75-3.19-0.17c-2.38-2.26-5.45-3.65-8.99-3.65c-6.9,0-12.3,5.22-12.3,12.47s5.39,12.47,12.3,12.47
					c3.54,0,6.67-1.39,8.99-3.65c1.1-0.99,2.09-1.1,3.19-0.17l2.09,1.74c1.1,0.93,1.16,2.15,0.12,3.13
					c-3.54,3.77-8.64,6.03-14.5,6.03C1508.07,588.42,1499.19,580.06,1499.19,568.87z"/>
				<path class="st5" d="M1577.78,585.4v-28.88h-9.74c-1.45,0-2.26-0.81-2.26-2.26v-2.03c0-1.45,0.81-2.2,2.26-2.2h27.26
					c1.45,0,2.32,0.75,2.32,2.2v2.03c0,1.45-0.87,2.26-2.32,2.26h-9.69v28.88c0,1.45-0.81,2.32-2.26,2.32h-3.36
					C1578.54,587.72,1577.78,586.85,1577.78,585.4z"/>
				<path class="st5" d="M1660.03,587.72h-4.52c-1.45,0-1.74-0.81-2.38-2.26l-2.03-4.87h-17.17l-2.09,4.87
					c-0.58,1.45-0.87,2.26-2.38,2.26h-4.23c-1.45,0-2.2-0.81-1.51-2.26l15.95-33.81c0.58-1.22,1.39-1.97,2.73-1.97h0.52
					c1.33,0,2.2,0.75,2.78,1.97l15.89,33.81C1662.23,586.91,1661.54,587.72,1660.03,587.72z M1648.72,574.96l-6.09-14.62
					l-6.26,14.62H1648.72z"/>
				<path class="st5" d="M1696.22,585.4v-33.12c0-1.45,0.87-2.26,2.32-2.26h13.69c12.06,0,19.78,7.54,19.78,18.79
					c0,11.37-7.71,18.91-19.78,18.91h-13.69C1697.09,587.72,1696.22,586.85,1696.22,585.4z M1712,581.22
					c7.19,0,12.01-4.76,12.01-12.35c0-7.66-4.81-12.35-12.01-12.35h-7.95v24.71H1712z"/>
				<path class="st5" d="M1799.4,587.72h-4.52c-1.45,0-1.74-0.81-2.38-2.26l-2.03-4.87h-17.17l-2.09,4.87
					c-0.58,1.45-0.87,2.26-2.38,2.26h-4.23c-1.45,0-2.2-0.81-1.51-2.26l15.95-33.81c0.58-1.22,1.39-1.97,2.73-1.97h0.52
					c1.33,0,2.2,0.75,2.78,1.97l15.89,33.81C1801.6,586.91,1800.91,587.72,1799.4,587.72z M1788.09,574.96l-6.09-14.62l-6.26,14.62
					H1788.09z"/>
			</g>
		</g>
		<g>
			<line class="st6" x1="1586" y1="619.69" x2="1810.25" y2="619.69"/>
			<line class="st6" x1="1215.75" y1="619.69" x2="1438.75" y2="619.69"/>
			<circle class="st4" cx="1446.75" cy="619.69" r="8"/>
			<circle class="st3" cx="1479.75" cy="619.69" r="8"/>
			<circle class="st7" cx="1512.75" cy="619.69" r="8"/>
			<circle class="st1" cx="1545.75" cy="619.69" r="8"/>
			<circle class="st5" cx="1578.75" cy="619.69" r="8"/>
		</g>
		<g>
			<path class="st4" d="M1228.64,650.24h1.9v15.23h-1.9V650.24z"/>
			<path class="st4" d="M1235.08,650.32h0.98l9.8,11.28v-11.28h1.88v15.09h-0.95l-9.83-11.28v11.28h-1.88V650.32z"/>
			<path class="st4" d="M1251.04,657.91c0-4.59,3.3-7.92,7.81-7.92s7.84,3.33,7.84,7.92s-3.33,7.9-7.84,7.9
				S1251.04,662.5,1251.04,657.91z M1264.73,657.91c0-3.58-2.49-6.16-5.88-6.16c-3.36,0-5.88,2.58-5.88,6.16s2.52,6.13,5.88,6.13
				C1262.24,664.04,1264.73,661.47,1264.73,657.91z"/>
			<path class="st4" d="M1274.28,665.41l-7.28-15.09h2.04l5.82,12.1l5.82-12.1h2.07l-7.31,15.09H1274.28z"/>
			<path class="st4" d="M1288.53,650.32h1.57l7.48,15.09h-2.04l-2.04-4.06h-8.34l-1.99,4.06h-2.02L1288.53,650.32z M1292.64,659.59
				l-3.33-6.69l-3.3,6.69H1292.64z"/>
			<path class="st4" d="M1313.42,661.72c-1.4,2.63-3.89,4.09-6.94,4.09c-4.51,0-7.81-3.3-7.81-7.9s3.3-7.92,7.81-7.92
				c2.8,0,5.18,1.29,6.61,3.53l-1.57,1.12c-0.95-1.82-2.86-2.88-5.04-2.88c-3.36,0-5.88,2.58-5.88,6.16s2.52,6.13,5.88,6.13
				c2.35,0,4.23-1.18,5.43-3.44L1313.42,661.72z M1303.15,670.09c1.32,0.28,2.35,0.48,3.22,0.48c1.18,0,1.79-0.42,1.79-1.23
				c0-1.01-0.62-1.43-1.96-1.43c-0.2,0-0.42,0-0.64,0.03v-2.52h0.87v1.51h0.28c1.93,0,2.97,0.84,2.97,2.35
				c0,1.51-1.04,2.41-3.08,2.41c-1.23,0-2.32-0.25-3.44-0.56V670.09z"/>
			<path class="st4" d="M1321.91,650.32h1.57l7.48,15.09h-2.04l-2.04-4.06h-8.34l-1.99,4.06h-2.02L1321.91,650.32z M1324.09,647.35
				c-0.28,0-0.59-0.06-0.9-0.14l-1.32-0.42c-0.2-0.06-0.42-0.11-0.73-0.11c-0.53,0-0.98,0.34-1.26,0.98h-1.09
				c0.39-1.62,1.34-2.49,2.66-2.49c0.25,0,0.5,0.03,0.73,0.11l1.32,0.42c0.31,0.11,0.59,0.17,0.76,0.17c0.62,0,1.01-0.34,1.32-1.01
				h1.12C1326.22,646.51,1325.35,647.35,1324.09,647.35z M1326.02,659.59l-3.33-6.69l-3.3,6.69H1326.02z"/>
			<path class="st4" d="M1332.04,657.91c0-4.59,3.3-7.92,7.81-7.92s7.84,3.33,7.84,7.92s-3.33,7.9-7.84,7.9
				S1332.04,662.5,1332.04,657.91z M1345.73,657.91c0-3.58-2.49-6.16-5.88-6.16c-3.36,0-5.88,2.58-5.88,6.16s2.52,6.13,5.88,6.13
				C1343.24,664.04,1345.73,661.47,1345.73,657.91z"/>
			<path class="st4" d="M1360.24,650.32h1.74l6.1,9.24l6.13-9.24h1.71v15.09h-1.85v-11.79l-5.99,8.93l-5.99-8.93v11.79h-1.85V650.32
				z"/>
			<path class="st4" d="M1385.46,650.32h1.57l7.48,15.09h-2.04l-2.04-4.06h-8.34l-1.99,4.06h-2.02L1385.46,650.32z M1389.58,659.59
				l-3.33-6.69l-3.3,6.69H1389.58z"/>
			<path class="st4" d="M1396.8,650.29h1.88v7.53l8.65-7.53h2.46l-6.1,5.38l7.03,9.74h-2.27l-6.1-8.46l-3.67,3.08v5.38h-1.88V650.29
				z"/>
			<path class="st4" d="M1413.21,650.32h11.87v1.74h-10v4.42h6.05v1.74h-6.05v5.46h10.61v1.74h-12.49V650.32z"/>
			<path class="st4" d="M1428.42,650.32h8.65c2.97,0,4.73,1.57,4.73,4.2c0,2.13-1.37,3.86-3.58,4.26l3.78,6.64h-2.07l-3.78-6.61
				h-5.85v6.61h-1.88V650.32z M1436.96,657.04c1.9,0,2.88-0.87,2.88-2.46c0-1.57-0.98-2.52-2.8-2.52h-6.75v4.98H1436.96z"/>
			<path class="st4" d="M1454.46,650.32h8.65c2.97,0,4.73,1.57,4.73,4.09c0,2.52-1.65,4.4-4.48,4.4h-7.03v6.61h-1.88V650.32z
				 M1463,657.04c1.9,0,2.88-0.87,2.88-2.46c0-1.57-0.98-2.52-2.8-2.52h-6.75v4.98H1463z"/>
			<path class="st4" d="M1473.61,650.32h1.57l7.48,15.09h-2.04l-2.04-4.06h-8.34l-1.99,4.06h-2.02L1473.61,650.32z M1477.72,659.59
				l-3.33-6.69l-3.3,6.69H1477.72z"/>
			<path class="st4" d="M1484.86,650.32h8.65c2.97,0,4.73,1.57,4.73,4.2c0,2.13-1.37,3.86-3.58,4.26l3.78,6.64h-2.07l-3.78-6.61
				h-5.85v6.61h-1.88V650.32z M1493.4,657.04c1.9,0,2.88-0.87,2.88-2.46c0-1.57-0.98-2.52-2.8-2.52h-6.75v4.98H1493.4z"/>
			<path class="st4" d="M1505.75,650.32h1.57l7.48,15.09h-2.04l-2.04-4.06h-8.34l-1.99,4.06h-2.02L1505.75,650.32z M1509.87,659.59
				l-3.33-6.69l-3.3,6.69H1509.87z"/>
			<path class="st4" d="M1531.54,650.32h1.57l7.48,15.09h-2.04l-2.04-4.06h-8.34l-1.99,4.06h-2.02L1531.54,650.32z M1535.65,659.59
				l-3.33-6.69l-3.3,6.69H1535.65z"/>
			<path class="st4" d="M1565.75,661.72c-1.4,2.63-3.89,4.09-6.94,4.09c-4.51,0-7.81-3.3-7.81-7.9s3.3-7.92,7.81-7.92
				c2.8,0,5.18,1.29,6.61,3.53l-1.57,1.12c-0.95-1.82-2.86-2.88-5.04-2.88c-3.36,0-5.88,2.58-5.88,6.16s2.52,6.13,5.88,6.13
				c2.35,0,4.23-1.18,5.43-3.44L1565.75,661.72z"/>
			<path class="st4" d="M1569.14,650.24h1.9v15.23h-1.9V650.24z"/>
			<path class="st4" d="M1589.97,657.91c0,4.34-2.88,7.5-7.92,7.5h-6.47v-15.09h6.47C1586.95,650.32,1589.97,653.54,1589.97,657.91z
				 M1577.46,652.06v11.62h4.59c3.89,0,5.99-2.41,5.99-5.8c0-3.39-2.24-5.82-5.99-5.82H1577.46z"/>
			<path class="st4" d="M1597.87,650.32h1.57l7.48,15.09h-2.04l-2.04-4.06h-8.34l-1.99,4.06h-2.02L1597.87,650.32z M1601.99,659.59
				l-3.33-6.69l-3.3,6.69H1601.99z"/>
			<path class="st4" d="M1623.6,657.91c0,4.34-2.88,7.5-7.92,7.5h-6.47v-15.09h6.47C1620.58,650.32,1623.6,653.54,1623.6,657.91z
				 M1611.08,652.06v11.62h4.59c3.89,0,5.99-2.41,5.99-5.8c0-3.39-2.24-5.82-5.99-5.82H1611.08z"/>
			<path class="st4" d="M1631.5,650.32h1.57l7.48,15.09h-2.04l-2.04-4.06h-8.34l-1.99,4.06h-2.02L1631.5,650.32z M1635.61,659.59
				l-3.33-6.69l-3.3,6.69H1635.61z"/>
			<path class="st4" d="M1642.84,650.32h0.98l9.8,11.28v-11.28h1.88v15.09h-0.95l-9.83-11.28v11.28h-1.88V650.32z"/>
			<path class="st4" d="M1660.03,650.24h1.9v15.23h-1.9V650.24z"/>
			<path class="st4" d="M1671.59,650.32h1.57l7.48,15.09h-2.04l-2.04-4.06h-8.34l-1.99,4.06h-2.02L1671.59,650.32z M1675.71,659.59
				l-3.33-6.69l-3.3,6.69H1675.71z"/>
			<path class="st4" d="M1692.28,650.24h1.9v15.23h-1.9V650.24z"/>
			<path class="st4" d="M1698.72,650.32h0.98l9.8,11.28v-11.28h1.88v15.09h-0.95l-9.83-11.28v11.28h-1.88V650.32z"/>
			<path class="st4" d="M1718.52,652.06h-6.36v-1.74h14.59v1.74h-6.36v13.36h-1.88V652.06z"/>
			<path class="st4" d="M1727.56,650.32h11.87v1.74h-10v4.42h6.05v1.74h-6.05v5.46h10.61v1.74h-12.49V650.32z"/>
			<path class="st4" d="M1754.42,659.11h-4.12v-1.74h5.99v4.54c-1.46,2.52-3.86,3.89-6.83,3.89c-4.51,0-7.81-3.3-7.81-7.9
				s3.3-7.92,7.81-7.92c2.8,0,5.18,1.29,6.61,3.53l-1.57,1.12c-0.95-1.82-2.86-2.88-5.04-2.88c-3.36,0-5.88,2.58-5.88,6.16
				s2.52,6.13,5.88,6.13c2.1,0,3.75-0.9,4.96-2.72V659.11z"/>
			<path class="st4" d="M1760.07,650.32h8.65c2.97,0,4.73,1.57,4.73,4.2c0,2.13-1.37,3.86-3.58,4.26l3.78,6.64h-2.07l-3.78-6.61
				h-5.85v6.61h-1.88V650.32z M1768.61,657.04c1.9,0,2.88-0.87,2.88-2.46c0-1.57-0.98-2.52-2.8-2.52h-6.75v4.98H1768.61z"/>
			<path class="st4" d="M1780.96,650.32h1.57l7.48,15.09h-2.04l-2.04-4.06h-8.34l-1.99,4.06h-2.02L1780.96,650.32z M1785.07,659.59
				l-3.33-6.69l-3.3,6.69H1785.07z"/>
			<path class="st4" d="M1792.3,650.32h1.88v13.36h9.86v1.74h-11.73V650.32z"/>
		</g>
	</g>
</g>
</svg>
