<?xml version="1.0" encoding="utf-8"?>
<!-- Símbolo (pin) da marca Itaitinga Conectada — extraído do vetor oficial (Adobe Illustrator). Cores oficiais inline. -->
<svg xmlns="http://www.w3.org/2000/svg" viewBox="264 172 378 462" role="img" aria-label="Itaitinga Conectada">
  <!-- arco/ponto verde (superior direito) -->
  <g fill="#46AD37">
    <circle cx="613.5" cy="373.75" r="23"/>
    <path d="M486.98,210.27l1.96-14.34c0.31-2.29,2.52-3.83,4.78-3.31c20.89,4.79,113.12,32.1,129.19,143.62
      c0.34,2.38-1.5,4.52-3.91,4.52h-13.03c-1.95,0-3.61-1.42-3.9-3.34c-2.64-17.49-19.77-98.52-112.2-122.8
      C487.94,214.1,486.71,212.23,486.98,210.27z"/>
  </g>
  <!-- arco/ponto ciano (inferior / ponta do pin) -->
  <g fill="#0BACAE">
    <circle cx="454" cy="605.75" r="23"/>
    <path d="M601.49,404.55l11.54,2.31c2.5,0.5,4.06,2.99,3.43,5.46c-3.22,12.56-14.93,49.17-48.96,86.44
      c-38.67,42.35-60.38,78.76-75.29,95.2c-1.87,2.06-5.15,1.88-6.82-0.34l-6.96-9.28c-1.16-1.54-1.19-3.65-0.08-5.22
      c8.3-11.74,42.88-60.19,73.14-95.36c29.96-34.82,41.56-65.71,44.89-76.2C597.08,405.4,599.27,404.11,601.49,404.55z"/>
  </g>
  <!-- arco/ponto azul (superior esquerdo) -->
  <g fill="#086EBD">
    <circle cx="454" cy="200.25" r="23"/>
    <path d="M420.51,210.27l-1.96-14.34c-0.31-2.29-2.52-3.83-4.78-3.31c-20.89,4.79-113.12,32.1-129.19,143.62
      c-0.34,2.38,1.5,4.52,3.91,4.52h13.03c1.95,0,3.61-1.42,3.9-3.34c2.64-17.49,19.77-98.52,112.2-122.8
      C419.54,214.1,420.78,212.23,420.51,210.27z"/>
  </g>
  <!-- arco/ponto amarelo (inferior esquerdo) -->
  <g fill="#F7B409">
    <circle cx="292.5" cy="373.75" r="23"/>
    <path d="M305.99,404.55l-11.54,2.31c-2.5,0.5-4.06,2.99-3.43,5.46c3.22,12.56,14.93,49.17,48.96,86.44
      c38.67,42.35,60.38,78.76,75.29,95.2c1.87,2.06,5.15,1.88,6.82-0.34l6.96-9.28c1.16-1.54,1.19-3.65,0.08-5.22
      c-8.3-11.74-42.88-60.19-73.14-95.36c-29.96-34.82-41.56-65.71-44.89-76.2C310.41,405.4,308.21,404.11,305.99,404.55z"/>
  </g>
  <!-- figura humana central (azul-marinho) -->
  <g fill="#052E59">
    <circle cx="454" cy="406.75" r="32"/>
    <path d="M453.25,573.75h-5.16c-5.07,0-9.11-4.24-8.85-9.3c0.44-8.7,0.13-23.28-3.99-42.7c-7-33-35-52-55-70
      c-7.7-6.93-13.18-12.67-17-17.12c-4.77-5.55-3.89-13.97,1.97-18.36v0c5.42-4.07,13.09-3.11,17.37,2.15
      c36.52,44.96,71.66,42.33,71.66,42.33h-0.5c0,0,35.14,2.64,71.66-42.33c4.27-5.26,11.94-6.22,17.37-2.15l0,0
      c5.86,4.39,6.74,12.81,1.97,18.36c-3.82,4.44-9.3,10.19-17,17.12c-20,18-48,37-55,70c-4.12,19.42-4.43,33.99-3.99,42.7
      c0.26,5.06-3.78,9.3-8.85,9.3h-5.16H453.25z"/>
  </g>
</svg>
